<?xml version="1.0" encoding="iso-8859-1"?>
<!-- Generator: Adobe Illustrator 19.0.0, SVG Export Plug-In . SVG Version: 6.00 Build 0)  -->
<svg version="1.1" id="Layer_1" xmlns="http://www.w3.org/2000/svg" xmlns:xlink="http://www.w3.org/1999/xlink" x="0px" y="0px"
	 viewBox="0 0 512.001 512.001" style="enable-background:new 0 0 512.001 512.001;" xml:space="preserve">
<circle style="fill:#D8DBBA;" cx="255.992" cy="256.001" r="255.992"/>
<path style="fill:#C6C9A3;" d="M510.744,230.936l-33.416-33.416l-47.286-15.471l-93.005,38.203l-50.252-50.252l-50.106,50.106
	l29.321,29.321l-67.215,27.61l-89.582-102.979l-72.238,23.46l301.056,301.056c101.159-34.181,173.98-129.879,173.98-242.559
	c0-8.463-0.419-16.817-1.22-25.062L510.744,230.936z"/>
<path style="fill:#333333;" d="M141.073,163.685L36.929,197.502c40.005-2.384,72.366,50.234,75.368,75.623
	c24.644-9.665,66.414,14.742,69.544,36.62c49.014-13.068,38.877,32.233,54.456,40.678c0,0,1.401,18.783,5.132,21.64
	c3.731,2.857,12.577,20.785,14.542,21.622c2.093-0.2,10.811-18.765,14.542-21.622c3.731-2.857,5.133-21.64,5.133-21.64
	c15.58-8.463,5.442-53.764,54.456-40.678c3.131-21.877,44.901-46.284,69.544-36.62c3.003-25.371,37.657-78.007,77.68-75.623
	l-102.76-33.617c-9.828,34.982-45.356,68.089-83.013,69.089l-9.501-10.137c6.334-8.791,10.829-21.113,9.101-29.631
	c0,0,6.424-5.333-4.387-23.224s-21.404,15.07-21.404,15.07c-4.096,0.273-7.59,0.054-9.392,1.62c-1.784-1.583-5.278-1.347-9.392-1.62
	c0,0-10.593-32.961-21.404-15.07s-4.387,23.224-4.387,23.224c-1.729,8.499,2.785,20.821,9.101,29.631l-9.501,10.137
	C182.734,231.974,150.883,198.649,141.073,163.685z"/>
<path style="fill:#FFFF00;" d="M281.545,191.441l-21.058,16.944c0,0,7.99,6.388,16.836,2.858
	C286.149,207.712,281.545,191.441,281.545,191.441z"/>
<path style="fill:#FFBA00;" d="M281.545,191.441l-21.058,16.944c0,0,0.091,0.073,0.255,0.2l19.73-13.25
	c1.547,5.169,1.238,9.701-0.674,14.287C285.167,204.273,281.545,191.441,281.545,191.441z"/>
<path style="fill:#FFFF00;" d="M230.419,191.441l21.058,16.944c0,0-7.99,6.388-16.836,2.858
	C225.814,207.712,230.419,191.441,230.419,191.441z"/>
<path style="fill:#FFBA00;" d="M230.419,191.441l21.058,16.944c0,0-0.091,0.073-0.255,0.2l-19.73-13.25
	c-1.547,5.169-1.238,9.701,0.674,14.287C226.797,204.273,230.419,191.441,230.419,191.441z"/>
<g>
</g>
<g>
</g>
<g>
</g>
<g>
</g>
<g>
</g>
<g>
</g>
<g>
</g>
<g>
</g>
<g>
</g>
<g>
</g>
<g>
</g>
<g>
</g>
<g>
</g>
<g>
</g>
<g>
</g>
</svg>
